PathFileType	4	(X/Y/Z)	Run_500 02
DataRate	CameraRate	NumFrames	NumMarkers	Units	OrigDataRate	OrigDataStartFrame	OrigNumFrames
100	100	5	42	mm	100	115	128
Frame#	Time	RASI			RPSI			RTH1			RTH2			RTH3			LTH1			LTH2			LTH3			RTB1			RTB2			RTB3			LTB1			LTB2			LTB3			RCAL			RTOE			RMT5			LCAL			LTOE			LMT5			LACR			RACR			CLAV			C7			RUA1			RUA2			RUA3			RLEL			LUA1			LUA2			LUA3			LLEL			LMEL			RFAsuperior			RFAradius			RFAulna			LFAsuperior			LFAradius			LPSI			RMEL			LFAulna			LASI		
		X1	Y1	Z1	X2	Y2	Z2	X3	Y3	Z3	X4	Y4	Z4	X5	Y5	Z5	X6	Y6	Z6	X7	Y7	Z7	X8	Y8	Z8	X9	Y9	Z9	X10	Y10	Z10	X11	Y11	Z11	X12	Y12	Z12	X13	Y13	Z13	X14	Y14	Z14	X15	Y15	Z15	X16	Y16	Z16	X17	Y17	Z17	X18	Y18	Z18	X19	Y19	Z19	X20	Y20	Z20	X21	Y21	Z21	X22	Y22	Z22	X23	Y23	Z23	X24	Y24	Z24	X25	Y25	Z25	X26	Y26	Z26	X27	Y27	Z27	X28	Y28	Z28	X29	Y29	Z29	X30	Y30	Z30	X31	Y31	Z31	X32	Y32	Z32	X33	Y33	Z33	X34	Y34	Z34	X35	Y35	Z35	X36	Y36	Z36	X37	Y37	Z37	X38	Y38	Z38	X39	Y39	Z39	X40	Y40	Z40	X41	Y41	Z41	X42	Y42	Z42	

115	  1.150000	997.552469	1047.332530	-228.601461	850.708601	1089.628163	-320.917344	943.627643	936.553858	-164.839347	962.609548	777.852593	-194.837154	1072.027272	663.485751	-204.695079	957.437764	875.996542	-516.881439	827.732812	766.624180	-478.383084	823.324401	622.736454	-465.762882	1221.063077	454.162543	-283.144411	1154.708806	382.476707	-224.202203	1247.352454	268.903531	-312.160200	682.566469	450.441845	-405.707538	569.565079	522.032463	-467.585530	462.785374	453.229865	-425.303359	1166.283358	114.469176	-321.708718	1398.174468	155.029578	-372.812385	1371.350122	 90.263285	-287.816921	349.824944	569.435432	-416.590425	266.916752	346.649159	-406.442518	243.526033	400.409406	-501.836927	1019.450652	1522.331578	-510.005688	972.001162	1500.708641	-193.975128	1047.197232	1468.747435	-308.419299	936.594572	1540.320053	-364.935581	828.236862	1460.519446	-173.193576	836.349720	1398.637598	-118.236031	733.206078	1369.765262	-108.050984	672.517077	1328.762801	-92.499759	940.924495	1420.276015	-584.989442	980.040285	1345.794038	-598.291066	919.129839	1274.197530	-634.535759	911.569263	1206.309207	-652.655359	878.026769	1187.187834	-567.546942	735.459625	1243.622531	-62.377270	887.281319	1150.189155	-98.551569	836.658651	1112.413138	-72.177983	986.344307	1180.386313	-625.634862	1116.516323	1242.627771	-502.035283	875.104446	1083.362130	-432.999167	689.614381	1290.000952	-171.107494	1139.574922	1180.810387	-531.183226	1036.623538	1007.375110	-469.454366	
116	  1.160000	995.933909	1042.828631	-229.904393	849.735300	1083.978968	-322.558808	940.508707	929.285886	-166.964741	956.085607	770.382212	-196.410291	1065.146558	654.833938	-205.955291	960.007947	870.310875	-517.156130	834.100633	756.365566	-476.737280	836.884260	612.393622	-467.332533	1209.963578	442.109360	-280.892274	1140.127533	370.898640	-225.292451	1233.363194	256.231975	-310.943757	699.570746	445.420994	-409.514673	592.256538	528.195071	-467.609673	480.747706	465.740703	-428.471346	1148.170129	106.576582	-327.078282	1383.713494	136.608028	-365.610192	1351.261917	 70.730053	-283.865395	373.422184	589.826131	-413.041978	282.960674	370.098404	-418.057496	265.014392	429.986885	-510.872464	1018.624029	1517.214763	-509.411364	973.146320	1492.719881	-192.657141	1048.015150	1462.674745	-307.645687	936.788177	1535.075962	-363.427683	830.004463	1450.043714	-169.080427	840.325952	1387.732194	-114.848995	738.139528	1356.776620	-101.650385	678.749831	1314.404150	-85.226211	938.609558	1416.357993	-584.204401	977.159240	1341.386479	-597.913534	915.305343	1271.078241	-633.994308	906.995832	1203.194084	-651.830403	873.493695	1183.633971	-567.862846	744.554082	1231.097183	-56.787370	898.600960	1143.055824	-96.869556	850.044905	1103.463799	-69.469330	980.293075	1172.210721	-626.502138	1115.665468	1222.234449	-501.843087	874.450836	1078.081287	-434.244919	694.992034	1276.761316	-165.570094	1134.193011	1160.265857	-533.735873	1036.573678	1001.925772	-468.636396	
117	  1.170000	994.324680	1036.558628	-231.098442	848.770988	1077.350063	-323.822389	936.878135	921.066808	-169.160112	949.398142	762.309606	-199.912982	1058.311417	645.956625	-207.995554	963.043290	864.311759	-517.862449	841.290088	745.410725	-475.349047	852.108868	601.405985	-469.519606	1196.999408	427.746311	-279.446213	1123.181293	359.266549	-225.901024	1212.558635	241.066166	-310.728953	719.567821	439.574858	-414.038413	617.844176	531.783325	-468.377274	502.771990	475.132899	-431.704277	1120.008599	100.210430	-331.562112	1358.336847	113.643209	-360.751417	1319.237196	 52.719301	-279.330826	400.000479	606.020344	-410.608057	305.499663	388.637599	-426.899032	291.575704	452.610365	-517.564838	1016.889208	1511.069848	-509.137333	974.463910	1483.938800	-191.091017	1048.774503	1455.868720	-307.007465	936.703639	1528.787475	-361.873578	832.261911	1437.859297	-163.800054	845.394739	1375.249867	-110.692685	744.321392	1341.997726	-93.898416	686.682212	1298.219944	-76.411442	935.238879	1411.096134	-583.308063	973.203103	1335.596643	-597.706582	910.625846	1266.580538	-633.485397	901.254800	1199.049251	-651.265727	867.673458	1179.341875	-568.280010	755.407568	1216.734786	-50.066624	911.274285	1134.464588	-95.039028	865.158984	1093.067292	-66.188366	972.862426	1162.745336	-627.870995	1112.400563	1199.185254	-502.329107	872.705795	1072.357101	-435.193955	701.706996	1261.657213	-158.248399	1126.581829	1137.741629	-537.319974	1035.992912	996.885306	-468.370948	
118	  1.180000	992.259668	1028.948189	-232.232104	847.459400	1070.308807	-325.277008	932.360401	912.699512	-171.616347	942.715675	754.647035	-203.361027	1051.856669	637.098443	-208.964172	966.030380	858.230304	-518.351776	849.955872	733.670285	-474.887704	869.209072	590.043422	-472.387829	1183.111492	413.714883	-279.940973	1104.658636	349.862234	-227.590681	1185.232928	227.112243	-314.551309	742.548131	432.872911	-418.707616	645.975161	532.387313	-470.122631	528.242692	481.218453	-434.784763	1082.209379	 96.471042	-337.777266	1321.905701	 93.315135	-362.220034	1277.337765	 42.938867	-277.528552	429.077300	618.044729	-409.593967	333.140967	401.912794	-433.082934	321.683093	468.228976	-522.334938	1014.297192	1504.278280	-509.007289	976.202909	1474.763630	-189.397228	1049.394052	1448.364864	-306.799039	936.228919	1521.439652	-360.121705	835.034478	1424.360212	-157.471189	851.722495	1361.646041	-106.049510	752.077256	1325.699248	-85.202432	696.602683	1280.604898	-66.500575	930.822927	1404.877708	-581.970659	968.212929	1328.773367	-597.460439	905.204906	1260.899657	-632.776897	894.370742	1194.079425	-650.951507	860.711690	1174.634568	-568.562634	768.250680	1201.023085	-42.604316	925.286429	1124.413615	-93.133634	881.871254	1081.358022	-62.428576	964.005963	1152.108234	-629.575086	1106.645688	1173.916550	-503.743866	870.345029	1065.670551	-436.482263	709.925934	1244.827354	-149.076758	1116.624694	1113.564883	-541.744652	1035.295868	991.693676	-468.812163	
119	  1.190000	989.027869	1020.916837	-232.969263	845.208713	1063.672436	-327.494295	926.008264	905.103297	-173.941705	936.251180	748.252089	-205.092992	1046.379976	629.398981	-208.364447	968.455609	852.046735	-517.716489	860.398381	721.059013	-475.932521	888.310522	578.766131	-475.636390	1169.135409	402.979142	-283.110376	1086.113971	344.751651	-231.261188	1153.382586	217.919219	-322.831206	768.534483	425.657579	-423.053707	676.253244	530.117551	-472.966932	556.658270	484.023059	-437.547931	1037.294638	 95.739269	-346.876842	1277.733721	 80.802438	-369.146693	1229.820590	 42.336118	-279.546347	459.992126	625.822429	-410.080500	364.674452	409.841357	-437.046815	354.509045	477.021987	-525.817135	1011.025858	1497.401857	-509.017343	978.457998	1465.656555	-187.685141	1049.935090	1440.485862	-307.057299	935.510486	1513.519601	-357.948295	838.624585	1409.923844	-150.250862	859.423768	1347.302504	-101.262574	761.847985	1307.989126	-76.067505	708.631783	1261.999788	-55.949667	925.559836	1398.232803	-580.017145	962.341736	1321.531145	-597.130737	899.014937	1254.510841	-631.761906	886.368545	1188.542370	-650.761697	852.878317	1169.750599	-568.483336	783.070787	1184.377926	-34.753655	940.523520	1112.946079	-91.207928	899.966917	1068.475126	-58.386518	953.561790	1140.560979	-631.403445	1098.507345	1147.324055	-506.079674	868.019086	1058.233411	-438.553734	719.742461	1226.585288	-138.548527	1104.277610	1088.412396	-546.643827	1034.588085	985.841140	-469.389301	
